<svg xmlns="http://www.w3.org/2000/svg" viewBox="0 0 217.33 415.87">
  <defs>
    <style>
      .cls-1 {
        fill: #fff;
      }
      .cls-2 {
        fill: none;
      }
    </style>
  </defs>
  <g id="Layer_1" data-name="Layer 1">
    <path
      class="cls-1"
      d="M97.63,28.22V27.09A136.51,136.51,0,0,0,122.49,20a184.57,184.57,0,0,0,19.6-9A142.85,142.85,0,0,0,159.43,0h1.13l-.36,118.53a54.3,54.3,0,0,0,.54,8.66,10,10,0,0,0,2.24,5.27,9.06,9.06,0,0,0,4.79,2.65,36.73,36.73,0,0,0,8.37.78V137l-70.74-.22v-1.12a37.72,37.72,0,0,0,7.9-.64,10.32,10.32,0,0,0,4.8-2.24,8.26,8.26,0,0,0,2.46-4.51,33.75,33.75,0,0,0,.68-7.43l.29-92.57Z"
    />
    <path
      class="cls-1"
      d="M212.42,215.67a43.44,43.44,0,0,0-13.12-14A67.46,67.46,0,0,0,179,192.53a98.38,98.38,0,0,0-26.33-3.37q-17.49-.06-29.18,5.18t-16,14.25q.57-1.89,1.43-6.11t1.72-9.69q.87-5.44,1.73-11.66T114,168.9c2,.26,5.51.49,10.54.7s10.34.37,16,.52,11.07.25,16.28.33,9,.12,11.38.13q17.88,0,28.05-7.06t14.37-22.73q-8.28,1.49-17.31,2.21t-17.88.7c-3,0-7.59-.1-13.73-.24s-11.53-.14-19.1-.28c-6.58-.13-27.31-.17-29.06-.55-.13.62-.19.18-.2,3s0,5.71,0,8.84q-.61,14.29-2.34,28.3t-4.79,28.12h1.32a27.26,27.26,0,0,1,13.21-13.23c6.15-3.06,13.56-4.56,22.22-4.55q9.77,0,16.45,3a28.27,28.27,0,0,1,10.79,8A30.9,30.9,0,0,1,176,216.32a65,65,0,0,1,1.74,15.62c0,5.26-.22,10.45-.61,15.52a34.84,34.84,0,0,1-3.81,13.72,23.8,23.8,0,0,1-10.1,9.85q-6.87,3.74-19.67,3.7a51.56,51.56,0,0,1-21.15-4.29,32.88,32.88,0,0,1-6.85-4,30.31,30.31,0,0,1-5.63-5.94,37.3,37.3,0,0,1-7.48-14.14,19.4,19.4,0,0,0,5.44,4.44,14,14,0,0,0,6.95,1.81,4.8,4.8,0,0,0,1-.09,6.5,6.5,0,0,1,1-.09,14.94,14.94,0,0,0,9.42-4.58,16.58,16.58,0,0,0,4.73-9.48,16.08,16.08,0,0,0-4.1-12.62,16.69,16.69,0,0,0-5.26-3.87,15.17,15.17,0,0,0-6.58-1.44,15.43,15.43,0,0,0-11.3,4.67,15.63,15.63,0,0,0-4.74,11.46v1.51a37.74,37.74,0,0,0,5.76,19.58,45.92,45.92,0,0,0,6,7.36,35,35,0,0,0,8.92,6.33,55.6,55.6,0,0,0,12.69,4.46,60.31,60.31,0,0,0,7,1.19c1.57.19,3.19.32,4.89.4a56.09,56.09,0,0,1,5.92-.3,43.19,43.19,0,0,1,5.42.35,155.47,155.47,0,0,0,16.58-1.42c.69-.08,1.38-.18,2.07-.29A67.91,67.91,0,0,0,195.9,269a41.89,41.89,0,0,0,15.28-13.51q5.85-8.53,5.9-21.89A35.08,35.08,0,0,0,212.42,215.67Z"
    />
    <path
      class="cls-1"
      d="M87.8,364a41.89,41.89,0,0,0-8.8-4.57,66.88,66.88,0,0,0-10.19-3.58,59.84,59.84,0,0,0-15.14-1.92,55.58,55.58,0,0,0-11.85,1.19,33.66,33.66,0,0,0-10.45,4.1A32.74,32.74,0,0,0,22.68,367,46.44,46.44,0,0,0,16,379.35q1.74-13.92,6.56-21.52a36.06,36.06,0,0,1,12-11.91A60,60,0,0,1,51,339.29q9.31-2.32,19.68-5.49,12.6-3.72,22.31-7.46a64.86,64.86,0,0,0,16.3-8.79,36.71,36.71,0,0,0,5-4.58,32.35,32.35,0,0,0,5-7.34,34,34,0,0,0,3.2-12,15,15,0,0,0-2.3,1.37,16.08,16.08,0,0,0-5.77,7.21,23.42,23.42,0,0,1,2.76-8.45,25.9,25.9,0,0,1,5.47-7c0-.67-.11-1.33-.21-2a28.54,28.54,0,0,0-3.72-10.38,40.45,40.45,0,0,0-11.24-12.17,58.51,58.51,0,0,0-17.29-8.42,74.3,74.3,0,0,0-22.1-3.18q-13.54,0-22.3,2.47a42.55,42.55,0,0,0-13.95,6.45,24.2,24.2,0,0,0-7.35,8.36,25.08,25.08,0,0,0-2.41,17.39,14.74,14.74,0,0,0,5.14,10.08,15.62,15.62,0,0,0,10.62,4.07,15.51,15.51,0,0,0,11.3-4.56,15.3,15.3,0,0,0,4.74-11.38,15.1,15.1,0,0,0-4.67-11.21A15.58,15.58,0,0,0,38,267.66a15.45,15.45,0,0,0-9.32,2.89,16.1,16.1,0,0,0-5.77,7.22,23.23,23.23,0,0,1,2.76-8.45,26.78,26.78,0,0,1,6.8-8.17,37.62,37.62,0,0,1,11-6.08,43.52,43.52,0,0,1,15.25-2.4,30.13,30.13,0,0,1,12,2.11A16.64,16.64,0,0,1,78.13,261a26.21,26.21,0,0,1,3.74,10,78.76,78.76,0,0,1,1,13.55c0,3.76,0,7.44.16,11a32.76,32.76,0,0,1-1.44,10.63,30.7,30.7,0,0,1-6.15,10.61q-4.55,5.34-14,11-10.36,6.38-19,11a73.32,73.32,0,0,0-14.9,10.4,39.76,39.76,0,0,0-9.73,14.08q-3.51,8.36-3.55,22.1v4.89h1.12a15,15,0,0,1,1.82-7.61,14,14,0,0,1,4.81-5A21.42,21.42,0,0,1,28.78,375a35.31,35.31,0,0,1,7.72-.82,25.79,25.79,0,0,1,8.55,1.24,28.15,28.15,0,0,1,6.39,3.22c1.94,1.33,3.81,2.72,5.63,4.16a40.08,40.08,0,0,0,6.57,4.16,39.57,39.57,0,0,0,9.21,3.22,61.85,61.85,0,0,0,13.45,1.27A37.87,37.87,0,0,0,103,388a38.3,38.3,0,0,0,12.35-9.17,38.75,38.75,0,0,0,4-5.33s0,0,0,0C120.82,371,114.6,384.21,87.8,364Z"
    />
    <path
      class="cls-1"
      d="M216.2,372.53v.75a16.27,16.27,0,0,1-2.18,8.84,14.72,14.72,0,0,1-5.57,5.16,24.4,24.4,0,0,1-7.82,2.42,61.79,61.79,0,0,1-8.94.63c-5.14,0-9.25-.65-12.31-1.92s-6.08-2.62-9-4.07a86.3,86.3,0,0,0-10-4.08q-5.55-1.89-15.14-1.93a56.33,56.33,0,0,0-11.86,1.19,33.93,33.93,0,0,0-10.45,4.11,32.84,32.84,0,0,0-8.68,7.78,46.17,46.17,0,0,0-6.72,12.39q1.74-13.91,6.56-21.52a36.34,36.34,0,0,1,12-11.91,59.82,59.82,0,0,1,16.49-6.62q9.31-2.34,19.67-5.5,12.63-3.72,22.32-7.46a64.72,64.72,0,0,0,16.3-8.79,34,34,0,0,0,10-11.91q3.4-6.87,3.43-16.83a27.94,27.94,0,0,0-4-14.41,40.23,40.23,0,0,0-11.25-12.17,58.57,58.57,0,0,0-17.28-8.42,66,66,0,0,0-9.51-2.21,82.12,82.12,0,0,0-12.59-1A87.2,87.2,0,0,0,139.45,277c-.71.17-1.41.34-2.08.54A42.38,42.38,0,0,0,123.43,284c-.34.26-.66.52-1,.78a23.22,23.22,0,0,0-6.39,7.58,28.55,28.55,0,0,0-2.75,8.36,28.13,28.13,0,0,0,.35,9,16.1,16.1,0,0,0,.63,3.22,14.66,14.66,0,0,0,4.52,6.86,16.06,16.06,0,0,0,21.92-.49A15.31,15.31,0,0,0,145.46,308a15,15,0,0,0-4.67-11.21,15.58,15.58,0,0,0-11.27-4.65,16,16,0,0,0-7,1.53,15,15,0,0,0-2.3,1.37,16.08,16.08,0,0,0-5.77,7.21,23.62,23.62,0,0,1,2.76-8.45,25.74,25.74,0,0,1,5.48-7q.63-.6,1.32-1.17a37.68,37.68,0,0,1,11-6.08,39.43,39.43,0,0,1,9.32-2.1,56.09,56.09,0,0,1,5.92-.3,43.19,43.19,0,0,1,5.42.35,24.67,24.67,0,0,1,6.62,1.76,16.89,16.89,0,0,1,7.41,6.24,26.42,26.42,0,0,1,3.73,10,77.89,77.89,0,0,1,1,13.56q0,5.64.16,11a32.74,32.74,0,0,1-1.44,10.62A30.52,30.52,0,0,1,167,341.24q-4.53,5.34-14,11-10.36,6.36-19,11a73.56,73.56,0,0,0-14.68,10.21s0,0,0,0-.13.11-.2.16a38.29,38.29,0,0,0-6.59,8,43.12,43.12,0,0,0-3.14,6.09q-3.51,8.37-3.55,22.1l0,4.89H107a15,15,0,0,1,1.8-7.6,14,14,0,0,1,4.82-5,21.65,21.65,0,0,1,6.78-2.71,35.94,35.94,0,0,1,7.72-.82,26.18,26.18,0,0,1,8.56,1.25,27.48,27.48,0,0,1,6.38,3.22q2.91,2,5.63,4.16a40.87,40.87,0,0,0,6.58,4.15,39.31,39.31,0,0,0,9.2,3.23,62,62,0,0,0,13.45,1.26,37.8,37.8,0,0,0,16.66-3.43,38.36,38.36,0,0,0,12.35-9.17,39.8,39.8,0,0,0,7.76-13.16,45.37,45.37,0,0,0,2.68-15.32v-2.26Z"
    />
    <path
      class="cls-1"
      d="M122.21,161.45a70.53,70.53,0,0,0-8.34-20.18c-.32-.5-.63-1-1-1.5s-.47-.73-.71-1.09a51.69,51.69,0,0,0-8.76-10c-.15-1.71-.22-3.66-.21-5.87l.36-118.53h-1.13A140.89,140.89,0,0,1,85.12,15.31a183.17,183.17,0,0,1-19.59,9,137.43,137.43,0,0,1-24.86,7.06v1.14l23.89.07-.26,86a73.15,73.15,0,0,0-14.69,3.48,81,81,0,0,0-23.24,12.86,69.94,69.94,0,0,0-26,48,80.14,80.14,0,0,0,1.89,26.49,70.45,70.45,0,0,0,10,22.77,46.9,46.9,0,0,0,16.33,15.28,46.91,46.91,0,0,0,21.71,5.36,70.18,70.18,0,0,0,24.55-4,80.42,80.42,0,0,0,23.25-12.86,69.89,69.89,0,0,0,26-48A80.2,80.2,0,0,0,122.21,161.45Zm-17.35-20.21a31.89,31.89,0,0,1-.72,4.2q-1.87,8-7.74,20t-15.65,30q-9.78,18-16.69,29.59T51.47,242.51c-3.77,4-7.4,6.16-10.86,6.62s-7.3-.42-11.49-2.69-7-5-8.53-8.16-1.61-7.4-.37-12.72,3.82-12,7.7-20.12S37,187.3,43.54,175.28s12.09-21.84,16.73-29.46c1-1.65,2-3.22,3-4.7a86.4,86.4,0,0,1,9.66-12.63q5.67-5.93,10.91-6.72t11.53,2.63q6.28,3.41,8.49,8.24A16.53,16.53,0,0,1,104.86,141.24Z"
    />
    <path
      class="cls-1"
      d="M111.8,265.36l8.21,22.5s9.48-9,22.82-11C145.73,276.44,124.51,275,111.8,265.36Z"
    />
    <path
      class="cls-2"
      d="M95.73,235.66s4.16,19.47,10.82,26.57S97,253,67.17,250.63,95.73,235.66,95.73,235.66Z"
    />
  </g>
</svg>
